<svg width="128" height="128" viewBox="0 0 128 128" fill="none" xmlns="http://www.w3.org/2000/svg">
<path fill-rule="evenodd" clip-rule="evenodd" d="M35.6498 101.267H47.7832C48.6458 101.267 49.5084 100.577 49.7096 99.7144L54.6263 79.0416H71.1301C71.9639 79.0416 72.8552 78.3228 73.0565 77.489L78.2319 55.6947C78.4331 54.8609 77.8868 54.1709 77.053 54.1709H64.9196C64.057 54.1709 63.1944 54.8609 62.9932 55.6947L58.0765 76.3964H41.5727C40.7102 76.3964 39.8476 77.1152 39.6463 77.949L34.4709 99.7144C34.2697 100.577 34.816 101.267 35.6498 101.267Z" fill="#75B547"/>
<path fill-rule="evenodd" clip-rule="evenodd" d="M78.2606 74.0962H90.3653C91.2279 74.0962 92.0905 73.4061 92.2917 72.5436L97.4959 50.7781C97.6972 49.9443 97.1509 49.2255 96.2883 49.2255H79.7845L83.2923 34.4468C96.0008 36.0857 105.374 41.5486 107.128 48.1042C110.061 59.145 104.08 65.758 94.2756 73.8662C107.07 65.3843 114.776 56.5286 111.067 45.2289C108.767 38.1271 98.0997 32.5492 84.2986 31.3991C85.7362 29.1852 88.784 27.4313 91.9467 27H71.4176C70.555 27 69.6925 27.6901 69.4912 28.5526L68.6574 32.0029C64.9196 32.6067 61.0955 33.498 57.3002 34.7919C50.1409 37.2071 43.7579 39.9385 38.2662 43.3025C43.4416 41.0311 48.5308 39.1047 53.7637 37.3796C58.6228 35.7982 63.4532 34.8206 68.1111 34.3031L64.287 50.3181C64.0858 51.1519 64.6321 51.8707 65.4946 51.8707H81.9984L77.0818 72.5436C76.8805 73.4061 77.3981 74.0962 78.2606 74.0962Z" fill="#E18939"/>
<path fill-rule="evenodd" clip-rule="evenodd" d="M47.352 27H35.2473C34.3847 27 33.5221 27.6901 33.3209 28.5526L28.1454 50.3181C27.9154 51.1519 28.4617 51.8707 29.3243 51.8707H32.2283C21.5612 59.8063 14.7756 68.1445 16.1845 78.0353C17.1046 84.7058 24.9539 89.7087 36.4549 91.4626L37.3174 87.7823C28.0017 85.5109 22.05 80.7092 21.5899 74.8725C20.8136 65.3555 25.8453 58.8575 33.7809 51.8707H45.8281L41.8315 68.7195C40.7389 71.3935 37.2887 73.6074 33.6659 74.0962H54.2237C55.0576 74.0962 55.9201 73.4062 56.1214 72.5436L61.3256 50.7781C61.5268 49.9443 60.9805 49.2255 60.118 49.2255H43.6142L45.7706 40.226C43.2691 41.1749 40.7677 42.2099 38.2662 43.3025C40.6814 41.8074 43.2691 40.4561 46.0006 39.191L48.5308 28.5526C48.7321 27.6901 48.2145 27 47.352 27ZM51.5785 91.8651C57.8465 91.3763 64.6321 90.0825 71.5901 87.811C83.2923 84.0157 93.8156 78.4953 102.039 72.2848C94.4194 77.259 85.4775 81.6581 75.8454 84.8496C67.421 87.6673 59.3704 89.0186 52.2111 89.2199L51.5785 91.8651Z" fill="#2D95C9"/>
</svg>
